# xmcd
#
# Track frame offsets: 
#        150
#        23362
#        39145
#        63197
#        88872
#        108020
#        128272
#        144130
#        165322
#        184787
#        201957
#        215802
#        244915
#        269467
#        300255
#        319702
#        342377
#
# Disc length: 4741 seconds
#
# Revision: 4
# Processed by: cddbd v1.5.2PL0 Copyright (c) Steve Scherf et al.
# Submitted via: ExactAudioCopyFreeDBPlugin 1.0
#
DISCID=d8128311
DTITLE=Various Artist - Mix Zone CD2
DYEAR=1996
DGENRE=Dance
TTITLE0=Y Traxx - Trance Piano (Original Mix)
TTITLE1=Johhny X  - Call On Me (Original Mix)
TTITLE2=Crescendo - Are You Out There (Original Mix)
TTITLE3=Chameleon - The Way It Is (Brothers In Ryhthm Club Mix)
TTITLE4=Mory Kante - Yeke Yeke (Hardfloor Mix)
TTITLE5=Coma B - Have Fun (Original Mix)
TTITLE6=Robert Miles - Children (Dream Version)
TTITLE7=Sasha and Maria - Be As One (12" Mix)
TTITLE8=Baby D - Let Me Be Your Fantasy (Dancing Divaz Club Mix)
TTITLE9=S Express - Theme From S Express (Tony De Vit Mix)
TTITLE10=Itty Bitty Boozy Woozy - Tempo Fiesta (Party Time) (Roll Fies
TTITLE10=ta)
TTITLE11=Magic Alec Presents Resonance - Resonance (Original Mix)
TTITLE12=Berri - Sunshire After The Rain (Dancin' Divaz Club Mix)
TTITLE13=Pendulam - I Need You (Option A)
TTITLE14=Bedrock ft. KYO - For What You Dream Of (Full On Renaissance 
TTITLE14=Mix)
TTITLE15=DJ Misjah and DJ Tim - Access (Vocal 12-Inch Mix)
TTITLE16=DJ Dado - The X Files (DJ Dado Paranormal Activity Mix)
EXTD=A non-stop mix of 34 club anthems and extended mixes YEAR: 1996
EXTT0=
EXTT1=
EXTT2=
EXTT3=
EXTT4=
EXTT5=
EXTT6=
EXTT7=
EXTT8=
EXTT9=
EXTT10=
EXTT11=
EXTT12=
EXTT13=
EXTT14=
EXTT15=
EXTT16=
PLAYORDER=
